<mxfile host="Electron" agent="Mozilla/5.0 (Windows NT 10.0; Win64; x64) AppleWebKit/537.36 (KHTML, like Gecko) draw.io/24.5.3 Chrome/124.0.6367.207 Electron/30.0.6 Safari/537.36" modified="2024-11-24T05:22:15.902Z" version="24.5.3" etag="Icy36UmD3J8ngLh6ke9T" type="device">
  <diagram name="Page-1" id="OuwUP65qcrgvOCPE6IUq">
    <mxGraphModel dx="1595" dy="1097" grid="0" gridSize="10" guides="1" tooltips="1" connect="1" arrows="1" fold="1" page="0" pageScale="1" pageWidth="850" pageHeight="1100" math="0" shadow="0">
      <root>
        <mxCell id="0" />
        <mxCell id="1" parent="0" />
        <mxCell id="2rJcS4rlqBvwB5Bz8rLU-26" style="edgeStyle=orthogonalEdgeStyle;rounded=0;orthogonalLoop=1;jettySize=auto;html=1;exitX=0.5;exitY=1;exitDx=0;exitDy=0;entryX=0.5;entryY=0;entryDx=0;entryDy=0;dashed=1;" edge="1" parent="1" source="2rJcS4rlqBvwB5Bz8rLU-8" target="2rJcS4rlqBvwB5Bz8rLU-15">
          <mxGeometry relative="1" as="geometry">
            <Array as="points">
              <mxPoint x="873" y="135" />
              <mxPoint x="830" y="135" />
            </Array>
          </mxGeometry>
        </mxCell>
        <mxCell id="PeV8ew4W6R2yW3cbjNy5-6" value="" style="rounded=0;whiteSpace=wrap;html=1;fillColor=none;align=left;" parent="1" vertex="1">
          <mxGeometry x="260" y="150" width="670" height="306" as="geometry" />
        </mxCell>
        <mxCell id="LoCKKTWlTXD0ZGGIlzzf-9" value="" style="rounded=0;whiteSpace=wrap;html=1;fillColor=none;" parent="1" vertex="1">
          <mxGeometry x="1820" y="50" width="770" height="435" as="geometry" />
        </mxCell>
        <mxCell id="PeV8ew4W6R2yW3cbjNy5-14" style="edgeStyle=orthogonalEdgeStyle;rounded=0;orthogonalLoop=1;jettySize=auto;html=1;entryX=0;entryY=0.5;entryDx=0;entryDy=0;" parent="1" source="LoCKKTWlTXD0ZGGIlzzf-1" target="PeV8ew4W6R2yW3cbjNy5-12" edge="1">
          <mxGeometry relative="1" as="geometry" />
        </mxCell>
        <mxCell id="PeV8ew4W6R2yW3cbjNy5-53" style="edgeStyle=orthogonalEdgeStyle;rounded=0;orthogonalLoop=1;jettySize=auto;html=1;exitX=0.25;exitY=1;exitDx=0;exitDy=0;entryX=0.5;entryY=1;entryDx=0;entryDy=0;" parent="1" source="LoCKKTWlTXD0ZGGIlzzf-1" target="2rJcS4rlqBvwB5Bz8rLU-5" edge="1">
          <mxGeometry relative="1" as="geometry">
            <mxPoint x="183" y="386" as="targetPoint" />
            <Array as="points">
              <mxPoint x="307" y="411" />
              <mxPoint x="65" y="411" />
            </Array>
          </mxGeometry>
        </mxCell>
        <mxCell id="2rJcS4rlqBvwB5Bz8rLU-19" style="edgeStyle=orthogonalEdgeStyle;rounded=0;orthogonalLoop=1;jettySize=auto;html=1;exitX=1;exitY=0.5;exitDx=0;exitDy=0;entryX=0;entryY=0.5;entryDx=0;entryDy=0;" edge="1" parent="1" source="LoCKKTWlTXD0ZGGIlzzf-1" target="2rJcS4rlqBvwB5Bz8rLU-16">
          <mxGeometry relative="1" as="geometry" />
        </mxCell>
        <mxCell id="LoCKKTWlTXD0ZGGIlzzf-1" value="&lt;b&gt;LLM&lt;/b&gt;&lt;br&gt;(llama-3.1-8b-instruct)" style="rounded=0;whiteSpace=wrap;html=1;" parent="1" vertex="1">
          <mxGeometry x="273" y="270" width="128" height="60" as="geometry" />
        </mxCell>
        <mxCell id="LoCKKTWlTXD0ZGGIlzzf-15" style="edgeStyle=orthogonalEdgeStyle;rounded=0;orthogonalLoop=1;jettySize=auto;html=1;" parent="1" source="LoCKKTWlTXD0ZGGIlzzf-2" target="LoCKKTWlTXD0ZGGIlzzf-14" edge="1">
          <mxGeometry relative="1" as="geometry" />
        </mxCell>
        <mxCell id="LoCKKTWlTXD0ZGGIlzzf-2" value="Embedder" style="rounded=0;whiteSpace=wrap;html=1;" parent="1" vertex="1">
          <mxGeometry x="1910" y="105" width="120" height="60" as="geometry" />
        </mxCell>
        <mxCell id="LoCKKTWlTXD0ZGGIlzzf-4" value="sends query &amp;amp; context using api" style="text;html=1;align=center;verticalAlign=middle;whiteSpace=wrap;rounded=0;" parent="1" vertex="1">
          <mxGeometry x="147" y="264" width="98" height="30" as="geometry" />
        </mxCell>
        <mxCell id="LoCKKTWlTXD0ZGGIlzzf-7" style="edgeStyle=orthogonalEdgeStyle;rounded=0;orthogonalLoop=1;jettySize=auto;html=1;exitX=1;exitY=0.5;exitDx=0;exitDy=0;entryX=0;entryY=0.5;entryDx=0;entryDy=0;" parent="1" source="LoCKKTWlTXD0ZGGIlzzf-5" target="LoCKKTWlTXD0ZGGIlzzf-1" edge="1">
          <mxGeometry relative="1" as="geometry" />
        </mxCell>
        <mxCell id="PeV8ew4W6R2yW3cbjNy5-2" value="" style="edgeStyle=orthogonalEdgeStyle;rounded=0;orthogonalLoop=1;jettySize=auto;html=1;strokeColor=none;" parent="1" source="LoCKKTWlTXD0ZGGIlzzf-5" target="PeV8ew4W6R2yW3cbjNy5-1" edge="1">
          <mxGeometry relative="1" as="geometry" />
        </mxCell>
        <mxCell id="2rJcS4rlqBvwB5Bz8rLU-22" style="edgeStyle=orthogonalEdgeStyle;rounded=0;orthogonalLoop=1;jettySize=auto;html=1;exitX=0;exitY=0.5;exitDx=0;exitDy=0;entryX=1;entryY=0.5;entryDx=0;entryDy=0;startArrow=classic;startFill=1;" edge="1" parent="1" source="LoCKKTWlTXD0ZGGIlzzf-5" target="2rJcS4rlqBvwB5Bz8rLU-21">
          <mxGeometry relative="1" as="geometry" />
        </mxCell>
        <mxCell id="LoCKKTWlTXD0ZGGIlzzf-5" value="&lt;b&gt;UI&lt;/b&gt;&lt;div&gt;(Streamlit)&lt;/div&gt;" style="rounded=0;whiteSpace=wrap;html=1;" parent="1" vertex="1">
          <mxGeometry x="5" y="270" width="120" height="60" as="geometry" />
        </mxCell>
        <mxCell id="LoCKKTWlTXD0ZGGIlzzf-8" value="LLM selects tool using langchain function" style="text;html=1;align=center;verticalAlign=middle;whiteSpace=wrap;rounded=0;" parent="1" vertex="1">
          <mxGeometry x="271" y="231" width="132" height="39" as="geometry" />
        </mxCell>
        <mxCell id="LoCKKTWlTXD0ZGGIlzzf-10" value="Rag retrieval tool" style="text;html=1;align=center;verticalAlign=middle;whiteSpace=wrap;rounded=0;" parent="1" vertex="1">
          <mxGeometry x="1850" y="40" width="160" height="70" as="geometry" />
        </mxCell>
        <mxCell id="LoCKKTWlTXD0ZGGIlzzf-12" value="" style="endArrow=classic;html=1;rounded=0;exitX=0.001;exitY=0.316;exitDx=0;exitDy=0;exitPerimeter=0;entryX=0;entryY=0.5;entryDx=0;entryDy=0;" parent="1" source="LoCKKTWlTXD0ZGGIlzzf-9" target="LoCKKTWlTXD0ZGGIlzzf-2" edge="1">
          <mxGeometry width="50" height="50" relative="1" as="geometry">
            <mxPoint x="1950" y="235" as="sourcePoint" />
            <mxPoint x="2000" y="185" as="targetPoint" />
            <Array as="points">
              <mxPoint x="1870" y="187" />
              <mxPoint x="1870" y="135" />
            </Array>
          </mxGeometry>
        </mxCell>
        <mxCell id="LoCKKTWlTXD0ZGGIlzzf-13" value="user query" style="text;html=1;align=center;verticalAlign=middle;whiteSpace=wrap;rounded=0;" parent="1" vertex="1">
          <mxGeometry x="1830" y="105" width="60" height="30" as="geometry" />
        </mxCell>
        <mxCell id="LoCKKTWlTXD0ZGGIlzzf-18" style="edgeStyle=orthogonalEdgeStyle;rounded=0;orthogonalLoop=1;jettySize=auto;html=1;entryX=0;entryY=0.5;entryDx=0;entryDy=0;" parent="1" source="LoCKKTWlTXD0ZGGIlzzf-14" target="LoCKKTWlTXD0ZGGIlzzf-17" edge="1">
          <mxGeometry relative="1" as="geometry" />
        </mxCell>
        <mxCell id="LoCKKTWlTXD0ZGGIlzzf-14" value="vectorstore" style="rounded=0;whiteSpace=wrap;html=1;" parent="1" vertex="1">
          <mxGeometry x="2130" y="105" width="120" height="60" as="geometry" />
        </mxCell>
        <mxCell id="LoCKKTWlTXD0ZGGIlzzf-16" value="Embedded query" style="text;html=1;align=center;verticalAlign=middle;whiteSpace=wrap;rounded=0;" parent="1" vertex="1">
          <mxGeometry x="2040" y="95" width="90" height="40" as="geometry" />
        </mxCell>
        <mxCell id="LoCKKTWlTXD0ZGGIlzzf-19" value="Compares embedded query with data to get k(x) relevant data" style="text;html=1;align=center;verticalAlign=middle;whiteSpace=wrap;rounded=0;" parent="1" vertex="1">
          <mxGeometry x="2120" y="55" width="150" height="40" as="geometry" />
        </mxCell>
        <mxCell id="LoCKKTWlTXD0ZGGIlzzf-20" value="k(x) data" style="text;html=1;align=center;verticalAlign=middle;whiteSpace=wrap;rounded=0;" parent="1" vertex="1">
          <mxGeometry x="2260" y="100" width="60" height="30" as="geometry" />
        </mxCell>
        <mxCell id="LoCKKTWlTXD0ZGGIlzzf-23" style="edgeStyle=orthogonalEdgeStyle;rounded=0;orthogonalLoop=1;jettySize=auto;html=1;entryX=0.5;entryY=0;entryDx=0;entryDy=0;" parent="1" source="LoCKKTWlTXD0ZGGIlzzf-17" target="LoCKKTWlTXD0ZGGIlzzf-22" edge="1">
          <mxGeometry relative="1" as="geometry" />
        </mxCell>
        <mxCell id="LoCKKTWlTXD0ZGGIlzzf-17" value="Reranker" style="rounded=0;whiteSpace=wrap;html=1;" parent="1" vertex="1">
          <mxGeometry x="2330" y="105" width="120" height="60" as="geometry" />
        </mxCell>
        <mxCell id="LoCKKTWlTXD0ZGGIlzzf-22" value="Guardrail??" style="rounded=0;whiteSpace=wrap;html=1;" parent="1" vertex="1">
          <mxGeometry x="2330" y="285" width="120" height="60" as="geometry" />
        </mxCell>
        <mxCell id="LoCKKTWlTXD0ZGGIlzzf-24" value="k(z) data" style="text;html=1;align=center;verticalAlign=middle;whiteSpace=wrap;rounded=0;" parent="1" vertex="1">
          <mxGeometry x="2410" y="215" width="60" height="30" as="geometry" />
        </mxCell>
        <mxCell id="LoCKKTWlTXD0ZGGIlzzf-25" value="Reranker sim search and filter top z result" style="text;html=1;align=center;verticalAlign=middle;whiteSpace=wrap;rounded=0;" parent="1" vertex="1">
          <mxGeometry x="2332.5" y="60" width="115" height="30" as="geometry" />
        </mxCell>
        <mxCell id="LoCKKTWlTXD0ZGGIlzzf-30" value="If k(z) safe then output of tool is k(z)" style="text;html=1;align=center;verticalAlign=middle;whiteSpace=wrap;rounded=0;" parent="1" vertex="1">
          <mxGeometry x="2470" y="405" width="60" height="30" as="geometry" />
        </mxCell>
        <mxCell id="LoCKKTWlTXD0ZGGIlzzf-31" value="If k(z) not safe then dont output that data" style="text;html=1;align=center;verticalAlign=middle;whiteSpace=wrap;rounded=0;" parent="1" vertex="1">
          <mxGeometry x="2290" y="405" width="60" height="30" as="geometry" />
        </mxCell>
        <mxCell id="PeV8ew4W6R2yW3cbjNy5-3" value="" style="edgeStyle=orthogonalEdgeStyle;rounded=0;orthogonalLoop=1;jettySize=auto;html=1;startArrow=classic;startFill=1;" parent="1" source="PeV8ew4W6R2yW3cbjNy5-1" target="LoCKKTWlTXD0ZGGIlzzf-5" edge="1">
          <mxGeometry relative="1" as="geometry" />
        </mxCell>
        <mxCell id="PeV8ew4W6R2yW3cbjNy5-1" value="&lt;b&gt;User&lt;/b&gt;" style="rounded=0;whiteSpace=wrap;html=1;fontStyle=0;labelBorderColor=none;fillColor=#ffe6cc;strokeColor=#d79b00;" parent="1" vertex="1">
          <mxGeometry x="5" y="119" width="120" height="60" as="geometry" />
        </mxCell>
        <mxCell id="PeV8ew4W6R2yW3cbjNy5-7" value="&lt;font style=&quot;font-size: 20px;&quot;&gt;&lt;b&gt;Multi-Agent&lt;/b&gt;&lt;/font&gt;" style="text;html=1;align=left;verticalAlign=middle;whiteSpace=wrap;rounded=0;" parent="1" vertex="1">
          <mxGeometry x="270" y="154" width="230" height="40" as="geometry" />
        </mxCell>
        <mxCell id="PeV8ew4W6R2yW3cbjNy5-21" style="edgeStyle=orthogonalEdgeStyle;rounded=0;orthogonalLoop=1;jettySize=auto;html=1;entryX=0;entryY=0.5;entryDx=0;entryDy=0;" parent="1" source="PeV8ew4W6R2yW3cbjNy5-12" target="PeV8ew4W6R2yW3cbjNy5-17" edge="1">
          <mxGeometry relative="1" as="geometry" />
        </mxCell>
        <mxCell id="2rJcS4rlqBvwB5Bz8rLU-24" style="edgeStyle=orthogonalEdgeStyle;rounded=0;orthogonalLoop=1;jettySize=auto;html=1;exitX=1;exitY=0.5;exitDx=0;exitDy=0;entryX=0;entryY=0.5;entryDx=0;entryDy=0;" edge="1" parent="1" source="PeV8ew4W6R2yW3cbjNy5-12" target="2rJcS4rlqBvwB5Bz8rLU-15">
          <mxGeometry relative="1" as="geometry" />
        </mxCell>
        <mxCell id="PeV8ew4W6R2yW3cbjNy5-12" value="&lt;b&gt;Database&amp;nbsp;&lt;/b&gt;&lt;div&gt;&lt;b&gt;Retrieval&lt;/b&gt;&lt;/div&gt;" style="rounded=0;whiteSpace=wrap;html=1;" parent="1" vertex="1">
          <mxGeometry x="528" y="234" width="120" height="60" as="geometry" />
        </mxCell>
        <mxCell id="PeV8ew4W6R2yW3cbjNy5-22" style="edgeStyle=orthogonalEdgeStyle;rounded=0;orthogonalLoop=1;jettySize=auto;html=1;exitX=1;exitY=0.5;exitDx=0;exitDy=0;entryX=1;entryY=0.5;entryDx=0;entryDy=0;" parent="1" source="PeV8ew4W6R2yW3cbjNy5-17" target="PeV8ew4W6R2yW3cbjNy5-19" edge="1">
          <mxGeometry relative="1" as="geometry" />
        </mxCell>
        <mxCell id="PeV8ew4W6R2yW3cbjNy5-26" style="edgeStyle=orthogonalEdgeStyle;rounded=0;orthogonalLoop=1;jettySize=auto;html=1;exitX=0;exitY=0.5;exitDx=0;exitDy=0;entryX=0.75;entryY=1;entryDx=0;entryDy=0;" parent="1" source="PeV8ew4W6R2yW3cbjNy5-19" target="LoCKKTWlTXD0ZGGIlzzf-1" edge="1">
          <mxGeometry relative="1" as="geometry">
            <Array as="points">
              <mxPoint x="369" y="413" />
            </Array>
          </mxGeometry>
        </mxCell>
        <mxCell id="PeV8ew4W6R2yW3cbjNy5-19" value="&lt;b&gt;Re-ranker&lt;/b&gt;&lt;div&gt;(nv-rerankqa-mistral-4b-v3)&lt;/div&gt;" style="rounded=0;whiteSpace=wrap;html=1;" parent="1" vertex="1">
          <mxGeometry x="770" y="383" width="120" height="60" as="geometry" />
        </mxCell>
        <mxCell id="PeV8ew4W6R2yW3cbjNy5-28" value="" style="rounded=0;whiteSpace=wrap;html=1;fillColor=none;align=left;" parent="1" vertex="1">
          <mxGeometry x="260" y="-141" width="670" height="260" as="geometry" />
        </mxCell>
        <mxCell id="PeV8ew4W6R2yW3cbjNy5-40" style="edgeStyle=orthogonalEdgeStyle;rounded=0;orthogonalLoop=1;jettySize=auto;html=1;entryX=0;entryY=0.5;entryDx=0;entryDy=0;" parent="1" source="PeV8ew4W6R2yW3cbjNy5-29" target="PeV8ew4W6R2yW3cbjNy5-30" edge="1">
          <mxGeometry relative="1" as="geometry" />
        </mxCell>
        <mxCell id="2rJcS4rlqBvwB5Bz8rLU-42" style="edgeStyle=orthogonalEdgeStyle;rounded=0;orthogonalLoop=1;jettySize=auto;html=1;exitX=1;exitY=0.5;exitDx=0;exitDy=0;entryX=0;entryY=0.5;entryDx=0;entryDy=0;strokeColor=#FF3333;dashed=1;" edge="1" parent="1" source="PeV8ew4W6R2yW3cbjNy5-29" target="2rJcS4rlqBvwB5Bz8rLU-33">
          <mxGeometry relative="1" as="geometry" />
        </mxCell>
        <mxCell id="PeV8ew4W6R2yW3cbjNy5-29" value="PDF&lt;span style=&quot;color: rgba(0, 0, 0, 0); font-family: monospace; font-size: 0px; text-align: start; text-wrap: nowrap;&quot;&gt;%3CmxGraphModel%3E%3Croot%3E%3CmxCell%20id%3D%220%22%2F%3E%3CmxCell%20id%3D%221%22%20parent%3D%220%22%2F%3E%3CmxCell%20id%3D%222%22%20value%3D%22%26lt%3Bfont%20style%3D%26quot%3Bfont-size%3A%2020px%3B%26quot%3B%26gt%3B%26lt%3Bb%26gt%3BMulti-agent%26amp%3Bnbsp%3B%26lt%3B%2Fb%26gt%3B%26lt%3B%2Ffont%26gt%3B%22%20style%3D%22text%3Bhtml%3D1%3Balign%3Dleft%3BverticalAlign%3Dmiddle%3BwhiteSpace%3Dwrap%3Brounded%3D0%3B%22%20vertex%3D%221%22%20parent%3D%221%22%3E%3CmxGeometry%20x%3D%22270%22%20y%3D%22130%22%20width%3D%22230%22%20height%3D%2240%22%20as%3D%22geometry%22%2F%3E%3C%2FmxCell%3E%3C%2Froot%3E%3C%2FmxGraphModel%3E&lt;/span&gt;&lt;span style=&quot;color: rgba(0, 0, 0, 0); font-family: monospace; font-size: 0px; text-align: start; text-wrap: nowrap;&quot;&gt;%3CmxGraphModel%3E%3Croot%3E%3CmxCell%20id%3D%220%22%2F%3E%3CmxCell%20id%3D%221%22%20parent%3D%220%22%2F%3E%3CmxCell%20id%3D%222%22%20value%3D%22%26lt%3Bfont%20style%3D%26quot%3Bfont-size%3A%2020px%3B%26quot%3B%26gt%3B%26lt%3Bb%26gt%3BMulti-agent%26amp%3Bnbsp%3B%26lt%3B%2Fb%26gt%3B%26lt%3B%2Ffont%26gt%3B%22%20style%3D%22text%3Bhtml%3D1%3Balign%3Dleft%3BverticalAlign%3Dmiddle%3BwhiteSpace%3Dwrap%3Brounded%3D0%3B%22%20vertex%3D%221%22%20parent%3D%221%22%3E%3CmxGeometry%20x%3D%22270%22%20y%3D%22130%22%20width%3D%22230%22%20height%3D%2240%22%20as%3D%22geometry%22%2F%3E%3C%2FmxCell%3E%3C%2Froot%3E%3C%2FmxGraphModel%3E&lt;/span&gt;" style="rounded=0;whiteSpace=wrap;html=1;" parent="1" vertex="1">
          <mxGeometry x="270" y="-92" width="100" height="60" as="geometry" />
        </mxCell>
        <mxCell id="PeV8ew4W6R2yW3cbjNy5-43" value="" style="edgeStyle=orthogonalEdgeStyle;rounded=0;orthogonalLoop=1;jettySize=auto;html=1;" parent="1" source="PeV8ew4W6R2yW3cbjNy5-30" target="PeV8ew4W6R2yW3cbjNy5-33" edge="1">
          <mxGeometry relative="1" as="geometry" />
        </mxCell>
        <mxCell id="PeV8ew4W6R2yW3cbjNy5-30" value="Scraping" style="rounded=0;whiteSpace=wrap;html=1;" parent="1" vertex="1">
          <mxGeometry x="410" y="-22" width="75" height="60" as="geometry" />
        </mxCell>
        <mxCell id="2rJcS4rlqBvwB5Bz8rLU-12" value="" style="edgeStyle=orthogonalEdgeStyle;rounded=0;orthogonalLoop=1;jettySize=auto;html=1;" edge="1" parent="1" source="PeV8ew4W6R2yW3cbjNy5-32" target="2rJcS4rlqBvwB5Bz8rLU-8">
          <mxGeometry relative="1" as="geometry" />
        </mxCell>
        <mxCell id="PeV8ew4W6R2yW3cbjNy5-32" value="Chunking&lt;div&gt;&amp;amp;&amp;nbsp;&lt;/div&gt;&lt;div&gt;Batch Insert&lt;/div&gt;" style="rounded=0;whiteSpace=wrap;html=1;" parent="1" vertex="1">
          <mxGeometry x="735" y="-22" width="75" height="60" as="geometry" />
        </mxCell>
        <mxCell id="PeV8ew4W6R2yW3cbjNy5-45" value="" style="edgeStyle=orthogonalEdgeStyle;rounded=0;orthogonalLoop=1;jettySize=auto;html=1;" parent="1" source="PeV8ew4W6R2yW3cbjNy5-33" target="PeV8ew4W6R2yW3cbjNy5-34" edge="1">
          <mxGeometry relative="1" as="geometry" />
        </mxCell>
        <mxCell id="PeV8ew4W6R2yW3cbjNy5-33" value="Filtering&lt;br&gt;&amp;amp;&lt;br&gt;Categorising" style="rounded=0;whiteSpace=wrap;html=1;" parent="1" vertex="1">
          <mxGeometry x="513" y="-22" width="75" height="60" as="geometry" />
        </mxCell>
        <mxCell id="PeV8ew4W6R2yW3cbjNy5-47" value="" style="edgeStyle=orthogonalEdgeStyle;rounded=0;orthogonalLoop=1;jettySize=auto;html=1;" parent="1" source="PeV8ew4W6R2yW3cbjNy5-34" target="PeV8ew4W6R2yW3cbjNy5-32" edge="1">
          <mxGeometry relative="1" as="geometry" />
        </mxCell>
        <mxCell id="PeV8ew4W6R2yW3cbjNy5-34" value="&lt;b&gt;Embedding&lt;/b&gt;&lt;div&gt;(nv-embedqa-e5-v5)&lt;/div&gt;" style="rounded=0;whiteSpace=wrap;html=1;" parent="1" vertex="1">
          <mxGeometry x="615.5" y="-22" width="96.5" height="60" as="geometry" />
        </mxCell>
        <mxCell id="PeV8ew4W6R2yW3cbjNy5-35" value="&lt;font style=&quot;font-size: 20px;&quot;&gt;&lt;b&gt;Data Ingestion&lt;/b&gt;&lt;/font&gt;" style="text;html=1;align=left;verticalAlign=middle;whiteSpace=wrap;rounded=0;" parent="1" vertex="1">
          <mxGeometry x="270" y="-139" width="230" height="40" as="geometry" />
        </mxCell>
        <mxCell id="PeV8ew4W6R2yW3cbjNy5-39" value="" style="edgeStyle=orthogonalEdgeStyle;rounded=0;orthogonalLoop=1;jettySize=auto;html=1;" parent="1" source="PeV8ew4W6R2yW3cbjNy5-36" target="PeV8ew4W6R2yW3cbjNy5-30" edge="1">
          <mxGeometry relative="1" as="geometry" />
        </mxCell>
        <mxCell id="2rJcS4rlqBvwB5Bz8rLU-43" style="edgeStyle=orthogonalEdgeStyle;rounded=0;orthogonalLoop=1;jettySize=auto;html=1;exitX=1;exitY=0.5;exitDx=0;exitDy=0;entryX=0;entryY=0.5;entryDx=0;entryDy=0;dashed=1;strokeColor=#FF3333;" edge="1" parent="1" source="PeV8ew4W6R2yW3cbjNy5-36" target="2rJcS4rlqBvwB5Bz8rLU-33">
          <mxGeometry relative="1" as="geometry">
            <mxPoint x="408.94444444444434" y="-62.27777777777783" as="targetPoint" />
            <Array as="points">
              <mxPoint x="381" y="8" />
              <mxPoint x="381" y="-62" />
            </Array>
          </mxGeometry>
        </mxCell>
        <mxCell id="PeV8ew4W6R2yW3cbjNy5-36" value="CSV" style="rounded=0;whiteSpace=wrap;html=1;" parent="1" vertex="1">
          <mxGeometry x="270" y="-22" width="100" height="60" as="geometry" />
        </mxCell>
        <mxCell id="PeV8ew4W6R2yW3cbjNy5-41" style="edgeStyle=orthogonalEdgeStyle;rounded=0;orthogonalLoop=1;jettySize=auto;html=1;entryX=0;entryY=0.5;entryDx=0;entryDy=0;" parent="1" source="PeV8ew4W6R2yW3cbjNy5-37" target="PeV8ew4W6R2yW3cbjNy5-30" edge="1">
          <mxGeometry relative="1" as="geometry" />
        </mxCell>
        <mxCell id="2rJcS4rlqBvwB5Bz8rLU-44" style="edgeStyle=orthogonalEdgeStyle;rounded=0;orthogonalLoop=1;jettySize=auto;html=1;exitX=1;exitY=0.5;exitDx=0;exitDy=0;entryX=0;entryY=0.5;entryDx=0;entryDy=0;dashed=1;strokeColor=#FF3333;" edge="1" parent="1" source="PeV8ew4W6R2yW3cbjNy5-37" target="2rJcS4rlqBvwB5Bz8rLU-33">
          <mxGeometry relative="1" as="geometry">
            <Array as="points">
              <mxPoint x="381" y="78" />
              <mxPoint x="381" y="-62" />
            </Array>
          </mxGeometry>
        </mxCell>
        <mxCell id="PeV8ew4W6R2yW3cbjNy5-37" value="URL" style="rounded=0;whiteSpace=wrap;html=1;" parent="1" vertex="1">
          <mxGeometry x="270" y="48" width="100" height="60" as="geometry" />
        </mxCell>
        <mxCell id="PeV8ew4W6R2yW3cbjNy5-42" style="edgeStyle=orthogonalEdgeStyle;rounded=0;orthogonalLoop=1;jettySize=auto;html=1;exitX=0.5;exitY=1;exitDx=0;exitDy=0;" parent="1" source="PeV8ew4W6R2yW3cbjNy5-6" target="PeV8ew4W6R2yW3cbjNy5-6" edge="1">
          <mxGeometry relative="1" as="geometry" />
        </mxCell>
        <mxCell id="2rJcS4rlqBvwB5Bz8rLU-4" style="edgeStyle=orthogonalEdgeStyle;rounded=0;orthogonalLoop=1;jettySize=auto;html=1;exitX=1;exitY=0.5;exitDx=0;exitDy=0;entryX=0;entryY=0.5;entryDx=0;entryDy=0;dashed=1;dashPattern=1 1;" edge="1" parent="1" source="2rJcS4rlqBvwB5Bz8rLU-1" target="LoCKKTWlTXD0ZGGIlzzf-1">
          <mxGeometry relative="1" as="geometry" />
        </mxCell>
        <mxCell id="2rJcS4rlqBvwB5Bz8rLU-1" value="User Feedback" style="rounded=0;whiteSpace=wrap;html=1;dashed=1;dashPattern=1 1;" vertex="1" parent="1">
          <mxGeometry x="5" y="330" width="120" height="27" as="geometry" />
        </mxCell>
        <mxCell id="2rJcS4rlqBvwB5Bz8rLU-2" value="sends query" style="text;html=1;align=center;verticalAlign=middle;whiteSpace=wrap;rounded=0;" vertex="1" parent="1">
          <mxGeometry x="-16" y="210" width="74" height="30" as="geometry" />
        </mxCell>
        <mxCell id="2rJcS4rlqBvwB5Bz8rLU-3" value="receives response" style="text;html=1;align=center;verticalAlign=middle;whiteSpace=wrap;rounded=0;" vertex="1" parent="1">
          <mxGeometry x="64" y="210" width="74" height="30" as="geometry" />
        </mxCell>
        <mxCell id="2rJcS4rlqBvwB5Bz8rLU-6" style="edgeStyle=orthogonalEdgeStyle;rounded=0;orthogonalLoop=1;jettySize=auto;html=1;exitX=1;exitY=0.5;exitDx=0;exitDy=0;entryX=0;entryY=0.5;entryDx=0;entryDy=0;dashed=1;dashPattern=1 1;" edge="1" parent="1" source="2rJcS4rlqBvwB5Bz8rLU-5" target="LoCKKTWlTXD0ZGGIlzzf-1">
          <mxGeometry relative="1" as="geometry" />
        </mxCell>
        <mxCell id="2rJcS4rlqBvwB5Bz8rLU-5" value="Conversation history" style="rounded=0;whiteSpace=wrap;html=1;dashed=1;dashPattern=1 1;" vertex="1" parent="1">
          <mxGeometry x="5" y="357" width="120" height="27" as="geometry" />
        </mxCell>
        <mxCell id="2rJcS4rlqBvwB5Bz8rLU-25" style="edgeStyle=orthogonalEdgeStyle;rounded=0;orthogonalLoop=1;jettySize=auto;html=1;exitX=0.5;exitY=1;exitDx=0;exitDy=0;entryX=0.5;entryY=0;entryDx=0;entryDy=0;dashed=1;" edge="1" parent="1" source="2rJcS4rlqBvwB5Bz8rLU-8" target="PeV8ew4W6R2yW3cbjNy5-17">
          <mxGeometry relative="1" as="geometry">
            <Array as="points">
              <mxPoint x="873" y="135" />
              <mxPoint x="830" y="135" />
            </Array>
          </mxGeometry>
        </mxCell>
        <mxCell id="2rJcS4rlqBvwB5Bz8rLU-8" value="Datastore" style="rounded=0;whiteSpace=wrap;html=1;" vertex="1" parent="1">
          <mxGeometry x="835" y="-22" width="75" height="60" as="geometry" />
        </mxCell>
        <mxCell id="2rJcS4rlqBvwB5Bz8rLU-14" value="returns response through api" style="text;html=1;align=center;verticalAlign=middle;whiteSpace=wrap;rounded=0;" vertex="1" parent="1">
          <mxGeometry x="153" y="413" width="98" height="30" as="geometry" />
        </mxCell>
        <mxCell id="2rJcS4rlqBvwB5Bz8rLU-18" style="edgeStyle=orthogonalEdgeStyle;rounded=0;orthogonalLoop=1;jettySize=auto;html=1;exitX=1;exitY=0.5;exitDx=0;exitDy=0;entryX=1;entryY=0.5;entryDx=0;entryDy=0;" edge="1" parent="1" source="2rJcS4rlqBvwB5Bz8rLU-15" target="PeV8ew4W6R2yW3cbjNy5-19">
          <mxGeometry relative="1" as="geometry" />
        </mxCell>
        <mxCell id="2rJcS4rlqBvwB5Bz8rLU-15" value="&lt;b&gt;Neo4j&lt;/b&gt;&lt;div&gt;(Graph RAG)&lt;/div&gt;" style="rounded=0;whiteSpace=wrap;html=1;" vertex="1" parent="1">
          <mxGeometry x="770" y="270" width="120" height="60" as="geometry" />
        </mxCell>
        <mxCell id="2rJcS4rlqBvwB5Bz8rLU-20" style="edgeStyle=orthogonalEdgeStyle;rounded=0;orthogonalLoop=1;jettySize=auto;html=1;exitX=0.5;exitY=1;exitDx=0;exitDy=0;entryX=0.75;entryY=1;entryDx=0;entryDy=0;" edge="1" parent="1" source="2rJcS4rlqBvwB5Bz8rLU-16" target="LoCKKTWlTXD0ZGGIlzzf-1">
          <mxGeometry relative="1" as="geometry">
            <Array as="points">
              <mxPoint x="588" y="390" />
              <mxPoint x="369" y="390" />
            </Array>
          </mxGeometry>
        </mxCell>
        <mxCell id="2rJcS4rlqBvwB5Bz8rLU-30" style="edgeStyle=orthogonalEdgeStyle;rounded=0;orthogonalLoop=1;jettySize=auto;html=1;exitX=1;exitY=0.5;exitDx=0;exitDy=0;entryX=0.5;entryY=1;entryDx=0;entryDy=0;fillColor=#f8cecc;strokeColor=#FF3333;dashed=1;" edge="1" parent="1" source="2rJcS4rlqBvwB5Bz8rLU-16" target="PeV8ew4W6R2yW3cbjNy5-30">
          <mxGeometry relative="1" as="geometry">
            <Array as="points">
              <mxPoint x="664" y="340" />
              <mxPoint x="664" y="174" />
              <mxPoint x="448" y="174" />
            </Array>
          </mxGeometry>
        </mxCell>
        <mxCell id="2rJcS4rlqBvwB5Bz8rLU-16" value="&lt;div&gt;&lt;b&gt;Tavily&lt;/b&gt;&lt;/div&gt;(Online Search Tool)" style="rounded=0;whiteSpace=wrap;html=1;" vertex="1" parent="1">
          <mxGeometry x="528" y="310" width="120" height="60" as="geometry" />
        </mxCell>
        <mxCell id="2rJcS4rlqBvwB5Bz8rLU-21" value="&lt;b&gt;VLM&lt;/b&gt;&lt;div&gt;(Qwen_VLM)&lt;/div&gt;" style="rounded=0;whiteSpace=wrap;html=1;" vertex="1" parent="1">
          <mxGeometry x="-203" y="270" width="120" height="60" as="geometry" />
        </mxCell>
        <mxCell id="2rJcS4rlqBvwB5Bz8rLU-23" value="uploaded imgs used as further context" style="text;html=1;align=center;verticalAlign=middle;whiteSpace=wrap;rounded=0;" vertex="1" parent="1">
          <mxGeometry x="-77" y="318" width="74" height="30" as="geometry" />
        </mxCell>
        <mxCell id="PeV8ew4W6R2yW3cbjNy5-17" value="&lt;b&gt;MilvusDB&lt;/b&gt;&lt;div&gt;(Vector RAG)&lt;/div&gt;" style="rounded=0;whiteSpace=wrap;html=1;" parent="1" vertex="1">
          <mxGeometry x="770" y="194" width="120" height="60" as="geometry" />
        </mxCell>
        <mxCell id="2rJcS4rlqBvwB5Bz8rLU-27" value="populates vectordb&lt;div&gt;&amp;amp; graphdb&lt;/div&gt;" style="text;html=1;align=right;verticalAlign=middle;whiteSpace=wrap;rounded=0;" vertex="1" parent="1">
          <mxGeometry x="762" y="80" width="109" height="39" as="geometry" />
        </mxCell>
        <mxCell id="2rJcS4rlqBvwB5Bz8rLU-28" value="cosine&amp;nbsp;&lt;div&gt;similarity retrieval&lt;/div&gt;" style="text;html=1;align=right;verticalAlign=middle;whiteSpace=wrap;rounded=0;" vertex="1" parent="1">
          <mxGeometry x="662" y="182" width="105" height="39" as="geometry" />
        </mxCell>
        <mxCell id="2rJcS4rlqBvwB5Bz8rLU-29" value="uses cross attention between query-passage for final score" style="text;html=1;align=right;verticalAlign=middle;whiteSpace=wrap;rounded=0;" vertex="1" parent="1">
          <mxGeometry x="594" y="374" width="173" height="39" as="geometry" />
        </mxCell>
        <mxCell id="2rJcS4rlqBvwB5Bz8rLU-41" style="edgeStyle=orthogonalEdgeStyle;rounded=0;orthogonalLoop=1;jettySize=auto;html=1;exitX=1;exitY=0.5;exitDx=0;exitDy=0;entryX=0.5;entryY=0;entryDx=0;entryDy=0;fontColor=#FF3333;strokeColor=#FF3333;" edge="1" parent="1" source="2rJcS4rlqBvwB5Bz8rLU-33" target="PeV8ew4W6R2yW3cbjNy5-33">
          <mxGeometry relative="1" as="geometry">
            <Array as="points">
              <mxPoint x="551" y="-62" />
            </Array>
          </mxGeometry>
        </mxCell>
        <mxCell id="2rJcS4rlqBvwB5Bz8rLU-33" value="Multimodal&lt;div&gt;Ingestion&lt;/div&gt;" style="rounded=0;whiteSpace=wrap;html=1;strokeColor=#FF3333;fontColor=#FF3333;" vertex="1" parent="1">
          <mxGeometry x="410" y="-92" width="75" height="60" as="geometry" />
        </mxCell>
        <mxCell id="2rJcS4rlqBvwB5Bz8rLU-40" value="" style="group;strokeWidth=3;perimeterSpacing=3;" vertex="1" connectable="0" parent="1">
          <mxGeometry x="-105" y="-82" width="247" height="156" as="geometry" />
        </mxCell>
        <mxCell id="2rJcS4rlqBvwB5Bz8rLU-34" value="" style="rounded=0;whiteSpace=wrap;html=1;strokeWidth=3;" vertex="1" parent="2rJcS4rlqBvwB5Bz8rLU-40">
          <mxGeometry width="247" height="156" as="geometry" />
        </mxCell>
        <mxCell id="2rJcS4rlqBvwB5Bz8rLU-35" value="Legend" style="text;html=1;align=center;verticalAlign=middle;whiteSpace=wrap;rounded=0;fontSize=16;fontStyle=1" vertex="1" parent="2rJcS4rlqBvwB5Bz8rLU-40">
          <mxGeometry x="14.423357664233576" y="4" width="54.087591240875916" height="30" as="geometry" />
        </mxCell>
        <mxCell id="2rJcS4rlqBvwB5Bz8rLU-36" value="Black" style="text;html=1;align=center;verticalAlign=middle;whiteSpace=wrap;rounded=0;fontSize=16;fontStyle=0" vertex="1" parent="2rJcS4rlqBvwB5Bz8rLU-40">
          <mxGeometry x="7.211678832116788" y="43" width="61.299270072992705" height="30" as="geometry" />
        </mxCell>
        <mxCell id="2rJcS4rlqBvwB5Bz8rLU-37" value="Red" style="text;html=1;align=center;verticalAlign=middle;whiteSpace=wrap;rounded=0;fontSize=16;fontStyle=0;fontColor=#FF3333;" vertex="1" parent="2rJcS4rlqBvwB5Bz8rLU-40">
          <mxGeometry x="7.211678832116788" y="103" width="61.299270072992705" height="30" as="geometry" />
        </mxCell>
        <mxCell id="2rJcS4rlqBvwB5Bz8rLU-38" value="Deployed and integrated" style="text;html=1;align=center;verticalAlign=middle;whiteSpace=wrap;rounded=0;fontSize=16;fontStyle=0" vertex="1" parent="2rJcS4rlqBvwB5Bz8rLU-40">
          <mxGeometry x="85.63868613138686" y="45" width="146.03649635036498" height="30" as="geometry" />
        </mxCell>
        <mxCell id="2rJcS4rlqBvwB5Bz8rLU-39" value="For further improvements" style="text;html=1;align=center;verticalAlign=middle;whiteSpace=wrap;rounded=0;fontSize=16;fontStyle=0;fontColor=#FF3333;" vertex="1" parent="2rJcS4rlqBvwB5Bz8rLU-40">
          <mxGeometry x="85.63868613138686" y="101" width="146.03649635036498" height="30" as="geometry" />
        </mxCell>
      </root>
    </mxGraphModel>
  </diagram>
</mxfile>
